<svg width="346" height="199" viewBox="0 0 346 199" fill="none" xmlns="http://www.w3.org/2000/svg">
<circle cx="114.5" cy="111.5" r="70.5" fill="#CE9461" fill-opacity="0.6"/>
<circle cx="114.5" cy="111.5" r="63.5" fill="#CE9461"/>
<path d="M32.5146 88.7031C32.0752 88.7031 31.6357 88.6885 31.1963 88.6592C30.7568 88.6299 30.332 88.5859 29.9219 88.5273C31.5625 88.9668 33.3643 89.582 35.3271 90.373C37.3193 91.1934 39.3701 92.0869 41.4795 93.0537C43.5889 94.0205 45.7129 95.002 47.8516 95.998C50.0195 96.9941 52.085 97.9023 54.0479 98.7227C56.04 99.543 57.8857 100.202 59.585 100.7C61.2842 101.228 62.7637 101.491 64.0234 101.491C65.1367 101.491 66.0742 101.359 66.8359 101.096C67.627 100.861 68.2568 100.554 68.7256 100.173C69.2236 99.8213 69.5898 99.4111 69.8242 98.9424C70.0879 98.5029 70.249 98.0635 70.3076 97.624L71.6699 97.8877C71.5234 99.5576 71.1865 101.154 70.6592 102.678C70.1611 104.201 69.4434 105.534 68.5059 106.677C67.5684 107.849 66.4111 108.771 65.0342 109.445C63.6572 110.148 62.0312 110.5 60.1562 110.5C58.5742 110.5 56.7139 110.119 54.5752 109.357C52.4365 108.596 50.1514 107.644 47.7197 106.501C45.3174 105.388 42.8418 104.172 40.293 102.854C37.7734 101.535 35.3125 100.305 32.9102 99.1621C30.5371 98.0488 28.3105 97.1113 26.2305 96.3496C24.1504 95.5879 22.3486 95.207 20.8252 95.207C19.0381 95.207 17.8076 95.9541 17.1338 97.4482L15.7715 97.0088C15.8008 96.6572 15.9033 96.1885 16.0791 95.6025C16.2549 95.0459 16.5039 94.4307 16.8262 93.7568C17.1777 93.1123 17.6172 92.4531 18.1445 91.7793C18.6719 91.1055 19.2871 90.4902 19.9902 89.9336C20.7227 89.4062 21.5576 88.9521 22.4951 88.5713C23.4619 88.2197 24.5605 88.0293 25.791 88C22.7148 87.3262 19.8438 86.1689 17.1777 84.5283C14.5117 82.8877 12.1973 80.7344 10.2344 78.0684C8.27148 75.373 6.71875 72.165 5.57617 68.4443C4.46289 64.6943 3.90625 60.3877 3.90625 55.5244C3.90625 49.8115 4.66797 44.875 6.19141 40.7148C7.74414 36.5254 9.82422 33.0684 12.4316 30.3438C15.0391 27.6191 18.0713 25.5977 21.5283 24.2793C25.0146 22.9609 28.6768 22.3018 32.5146 22.3018C36.3525 22.3018 40 22.9609 43.457 24.2793C46.9141 25.5977 49.9463 27.6191 52.5537 30.3438C55.1904 33.0684 57.2705 36.5254 58.7939 40.7148C60.3467 44.875 61.123 49.8115 61.123 55.5244C61.123 61.2373 60.3467 66.1885 58.7939 70.3779C57.2705 74.5381 55.1904 77.9805 52.5537 80.7051C49.9463 83.4004 46.9141 85.4072 43.457 86.7256C40 88.0439 36.3525 88.7031 32.5146 88.7031ZM32.5146 25.8174C31.8115 25.8174 30.9912 25.9346 30.0537 26.1689C29.1455 26.374 28.1934 26.8428 27.1973 27.5752C26.2305 28.2783 25.2637 29.2891 24.2969 30.6074C23.3301 31.9258 22.4658 33.6836 21.7041 35.8809C20.9717 38.0781 20.3711 40.7881 19.9023 44.0107C19.4336 47.2041 19.1992 51.042 19.1992 55.5244C19.1992 59.9775 19.4336 63.8008 19.9023 66.9941C20.3711 70.1582 20.9717 72.8242 21.7041 74.9922C22.4658 77.1309 23.3301 78.8447 24.2969 80.1338C25.2637 81.3936 26.2305 82.3604 27.1973 83.0342C28.1934 83.6787 29.1455 84.1035 30.0537 84.3086C30.9912 84.4844 31.8115 84.5723 32.5146 84.5723C33.1885 84.5723 33.9941 84.4844 34.9316 84.3086C35.8691 84.1035 36.8213 83.6787 37.7881 83.0342C38.7842 82.3604 39.7656 81.3936 40.7324 80.1338C41.6992 78.8447 42.5488 77.1309 43.2812 74.9922C44.043 72.8242 44.6582 70.1582 45.127 66.9941C45.5957 63.8301 45.8301 60.0068 45.8301 55.5244C45.8301 51.042 45.5957 47.2041 45.127 44.0107C44.6582 40.7881 44.043 38.0781 43.2812 35.8809C42.5488 33.6836 41.6992 31.9258 40.7324 30.6074C39.7656 29.2891 38.7842 28.2783 37.7881 27.5752C36.8213 26.8428 35.8691 26.374 34.9316 26.1689C33.9941 25.9346 33.1885 25.8174 32.5146 25.8174ZM108.628 80.3535C108.628 80.6172 108.643 80.9102 108.672 81.2324C108.701 81.5254 108.774 81.8184 108.892 82.1113C109.009 82.375 109.185 82.5947 109.419 82.7705C109.653 82.9463 109.99 83.0342 110.43 83.0342C110.986 83.0342 111.484 82.8438 111.924 82.4629C112.363 82.0527 112.773 81.6426 113.154 81.2324L114.209 82.1553C113.77 82.7705 113.213 83.459 112.539 84.2207C111.895 84.9531 111.104 85.6562 110.166 86.3301C109.229 87.0039 108.159 87.5605 106.958 88C105.757 88.4688 104.395 88.7031 102.871 88.7031C101.582 88.7031 100.454 88.5273 99.4873 88.1758C98.5498 87.8535 97.7441 87.4141 97.0703 86.8574C96.4258 86.2715 95.9424 85.5977 95.6201 84.8359C95.2979 84.0449 95.1367 83.21 95.1367 82.3311V80.3535C93.6719 81.9355 92.1338 83.3271 90.5225 84.5283C89.8193 85.0557 89.0723 85.5684 88.2812 86.0664C87.4902 86.5645 86.6699 87.0186 85.8203 87.4287C84.9707 87.8096 84.0918 88.1172 83.1836 88.3516C82.2754 88.5859 81.3672 88.7031 80.459 88.7031C78.7012 88.7031 77.1924 88.3955 75.9326 87.7803C74.7021 87.1357 73.7061 86.3008 72.9443 85.2754C72.1826 84.25 71.626 83.0928 71.2744 81.8037C70.9229 80.5146 70.7471 79.2256 70.7471 77.9365V50.7344C70.7471 50.4707 70.7324 50.1924 70.7031 49.8994C70.6738 49.5771 70.6006 49.2842 70.4834 49.0205C70.3662 48.7275 70.1904 48.4932 69.9561 48.3174C69.7217 48.1416 69.3848 48.0537 68.9453 48.0537C68.418 48.0537 67.9199 48.2588 67.4512 48.6689C67.0117 49.0498 66.6162 49.4453 66.2646 49.8555L65.166 48.9326C65.6055 48.3174 66.1475 47.6436 66.792 46.9111C67.4658 46.1494 68.2715 45.4316 69.209 44.7578C70.1465 44.084 71.2158 43.5273 72.417 43.0879C73.6475 42.6191 75.0098 42.3848 76.5039 42.3848C77.793 42.3848 78.9209 42.5605 79.8877 42.9121C80.8545 43.2344 81.6602 43.6885 82.3047 44.2744C82.9492 44.8311 83.4326 45.5049 83.7549 46.2959C84.0771 47.0576 84.2383 47.8779 84.2383 48.7568V78.1123C84.2383 78.5225 84.2969 78.9473 84.4141 79.3867C84.5605 79.7969 84.751 80.1777 84.9854 80.5293C85.249 80.8809 85.5713 81.1738 85.9521 81.4082C86.333 81.6133 86.7871 81.7158 87.3145 81.7158C88.1641 81.7158 89.0137 81.4961 89.8633 81.0566C90.7129 80.6172 91.4893 80.1045 92.1924 79.5186C92.8955 78.9033 93.4961 78.3027 93.9941 77.7168C94.5215 77.1309 94.9023 76.6914 95.1367 76.3984V50.7344C95.1367 50.4707 95.1221 50.1924 95.0928 49.8994C95.0635 49.5771 94.9902 49.2842 94.873 49.0205C94.7559 48.7275 94.5801 48.4932 94.3457 48.3174C94.1113 48.1416 93.7744 48.0537 93.335 48.0537C92.8076 48.0537 92.3096 48.2588 91.8408 48.6689C91.4014 49.0498 91.0059 49.4453 90.6543 49.8555L89.5557 48.9326C89.9951 48.3174 90.5371 47.6436 91.1816 46.9111C91.8555 46.1494 92.6611 45.4316 93.5986 44.7578C94.5361 44.084 95.6055 43.5273 96.8066 43.0879C98.0371 42.6191 99.3994 42.3848 100.894 42.3848C102.183 42.3848 103.311 42.5605 104.277 42.9121C105.244 43.2344 106.05 43.6885 106.694 44.2744C107.339 44.8311 107.822 45.5049 108.145 46.2959C108.467 47.0576 108.628 47.8779 108.628 48.7568V80.3535ZM140.005 65.2363C140.005 64.5039 139.771 63.9473 139.302 63.5664C138.833 63.1855 138.232 62.9951 137.5 62.9951C136.475 62.9951 135.493 63.2295 134.556 63.6982C133.647 64.167 132.842 64.8555 132.139 65.7637C131.436 66.6719 130.879 67.7998 130.469 69.1475C130.059 70.4658 129.854 72.0039 129.854 73.7617C129.854 75.4609 129.971 76.8672 130.205 77.9805C130.469 79.0938 130.806 79.9873 131.216 80.6611C131.655 81.3057 132.153 81.7598 132.71 82.0234C133.267 82.2871 133.853 82.4189 134.468 82.4189C135.229 82.4189 135.947 82.2285 136.621 81.8477C137.295 81.4375 137.881 80.9248 138.379 80.3096C138.877 79.6943 139.272 79.0059 139.565 78.2441C139.858 77.4824 140.005 76.7207 140.005 75.959V65.2363ZM133.018 45.9883C132.021 45.9883 131.099 46.1055 130.249 46.3398C129.399 46.5742 128.667 46.8672 128.052 47.2188C127.437 47.5703 126.953 47.9658 126.602 48.4053C126.25 48.8154 126.074 49.2109 126.074 49.5918C126.074 50.0312 126.294 50.3535 126.733 50.5586C127.202 50.7344 127.715 50.9541 128.271 51.2178C128.828 51.4521 129.326 51.8037 129.766 52.2725C130.234 52.7119 130.469 53.4004 130.469 54.3379C130.469 54.9531 130.337 55.5244 130.073 56.0518C129.839 56.5498 129.502 57.0039 129.062 57.4141C128.652 57.7949 128.154 58.1025 127.568 58.3369C127.012 58.542 126.426 58.6445 125.811 58.6445C124.17 58.6445 122.837 58.0879 121.812 56.9746C120.815 55.8613 120.317 54.3818 120.317 52.5361C120.317 50.749 120.786 49.2256 121.724 47.9658C122.661 46.6768 123.877 45.6221 125.371 44.8018C126.895 43.9814 128.608 43.3809 130.513 43C132.417 42.5898 134.321 42.3848 136.226 42.3848C138.511 42.3848 140.693 42.6338 142.773 43.1318C144.854 43.6299 146.685 44.4209 148.267 45.5049C149.878 46.5889 151.152 47.9658 152.09 49.6357C153.057 51.3057 153.54 53.3271 153.54 55.7002V80.5293C153.54 80.793 153.555 81.0859 153.584 81.4082C153.613 81.7305 153.687 82.0234 153.804 82.2871C153.921 82.5508 154.097 82.7705 154.331 82.9463C154.565 83.1221 154.902 83.21 155.342 83.21C155.869 83.21 156.353 83.0195 156.792 82.6387C157.261 82.2285 157.671 81.8184 158.022 81.4082L159.121 82.3311C158.682 82.9463 158.154 83.6201 157.539 84.3525C156.924 85.085 156.177 85.7734 155.298 86.418C154.419 87.0625 153.394 87.6045 152.222 88.0439C151.05 88.4834 149.717 88.7031 148.223 88.7031C146.377 88.7031 144.736 88.1611 143.301 87.0771C141.865 85.9639 140.928 84.2646 140.488 81.9795C139.551 83.2393 138.569 84.2939 137.544 85.1436C136.548 85.9932 135.522 86.6816 134.468 87.209C133.413 87.7363 132.344 88.1172 131.26 88.3516C130.205 88.5859 129.136 88.7031 128.052 88.7031C126.646 88.7031 125.283 88.4834 123.965 88.0439C122.646 87.6045 121.46 86.916 120.405 85.9785C119.38 85.0117 118.545 83.7666 117.9 82.2432C117.285 80.7197 116.978 78.8594 116.978 76.6621C116.978 73.9961 117.505 71.8135 118.56 70.1143C119.614 68.415 120.991 66.9941 122.69 65.8516C124.419 64.6797 126.367 63.6836 128.535 62.8633C130.732 62.043 132.974 61.1787 135.259 60.2705C136.958 59.5967 138.188 58.6006 138.95 57.2822C139.741 55.9346 140.137 54.5576 140.137 53.1514C140.137 50.9834 139.492 49.2549 138.203 47.9658C136.943 46.6475 135.215 45.9883 133.018 45.9883ZM179.072 84.0449C179.072 84.4258 178.999 84.8945 178.853 85.4512C178.735 85.9785 178.428 86.4912 177.93 86.9893C177.461 87.458 176.772 87.8535 175.864 88.1758C174.956 88.5273 173.726 88.7031 172.173 88.7031C170.62 88.7031 169.404 88.5127 168.525 88.1318C167.646 87.7803 166.987 87.3555 166.548 86.8574C166.108 86.3594 165.83 85.8467 165.713 85.3193C165.625 84.792 165.581 84.3672 165.581 84.0449V50.1191C165.581 49.2695 165.376 48.5371 164.966 47.9219C164.585 47.2773 163.926 46.9551 162.988 46.9551C162.49 46.9551 162.065 47.043 161.714 47.2188C161.362 47.3945 160.981 47.6436 160.571 47.9658L159.648 46.8672C160.322 46.3105 161.069 45.7686 161.89 45.2412C162.739 44.6846 163.647 44.2012 164.614 43.791C165.581 43.3809 166.621 43.0439 167.734 42.7803C168.848 42.5166 170.02 42.3848 171.25 42.3848C173.154 42.3848 174.634 42.6484 175.688 43.1758C176.743 43.6738 177.52 44.3037 178.018 45.0654C178.516 45.7979 178.809 46.5889 178.896 47.4385C179.014 48.2881 179.072 49.0352 179.072 49.6797V84.0449ZM164.219 32.3652C164.219 31.5449 164.395 30.7686 164.746 30.0361C165.127 29.2744 165.64 28.6152 166.284 28.0586C166.958 27.502 167.72 27.0625 168.569 26.7402C169.448 26.418 170.4 26.2568 171.426 26.2568C172.422 26.2568 173.345 26.418 174.194 26.7402C175.073 27.0625 175.835 27.502 176.479 28.0586C177.124 28.6152 177.622 29.2744 177.974 30.0361C178.354 30.7686 178.545 31.5449 178.545 32.3652C178.545 33.2148 178.354 34.0059 177.974 34.7383C177.622 35.4707 177.124 36.1152 176.479 36.6719C175.835 37.1992 175.073 37.624 174.194 37.9463C173.345 38.2686 172.422 38.4297 171.426 38.4297C170.4 38.4297 169.448 38.2686 168.569 37.9463C167.72 37.624 166.958 37.1992 166.284 36.6719C165.64 36.1152 165.127 35.4707 164.746 34.7383C164.395 34.0059 164.219 33.2148 164.219 32.3652Z" fill="#290001"/>
<path d="M77.6211 156.455H61.0537C59.8232 160.322 58.4902 163.677 57.0547 166.519C55.6484 169.36 54.0811 171.719 52.3525 173.594C50.624 175.469 48.7197 176.86 46.6396 177.769C44.5889 178.677 42.2891 179.131 39.7402 179.131C38.334 179.131 36.9863 178.999 35.6973 178.735C34.3789 178.501 33.2217 178.164 32.2256 177.725C31.2295 177.285 30.4385 176.758 29.8525 176.143C29.2373 175.557 28.9297 174.912 28.9297 174.209C28.9297 173.682 29.0176 173.154 29.1934 172.627C29.3398 172.07 29.5596 171.572 29.8525 171.133C30.1455 170.664 30.5117 170.298 30.9512 170.034C31.3613 169.741 31.8301 169.595 32.3574 169.595C32.8262 169.595 33.2363 169.917 33.5879 170.562C33.9395 171.206 34.3936 171.924 34.9502 172.715C35.4775 173.477 36.166 174.18 37.0156 174.824C37.8652 175.469 39.0371 175.791 40.5312 175.791C42.0547 175.791 43.5049 175.425 44.8818 174.692C46.2588 173.96 47.5771 172.817 48.8369 171.265C50.126 169.683 51.3564 167.676 52.5283 165.244C53.7002 162.812 54.8428 159.883 55.9561 156.455H45.585V152.588H57.0986C58.0654 149.307 59.0029 145.996 59.9111 142.656C60.8486 139.316 61.7275 136.108 62.5479 133.032C63.3682 129.956 64.1006 127.085 64.7451 124.419C65.3896 121.724 65.9316 119.38 66.3711 117.388C65.7852 115.747 64.9795 114.648 63.9541 114.092C62.958 113.535 61.6104 113.257 59.9111 113.257C58.3291 113.257 56.6885 113.506 54.9893 114.004C53.3193 114.473 51.7959 115.161 50.4189 116.069C49.042 116.948 47.8994 118.047 46.9912 119.365C46.1123 120.654 45.6729 122.104 45.6729 123.716C45.6729 124.653 45.79 125.4 46.0244 125.957C46.2881 126.514 46.5811 126.938 46.9033 127.231C47.2549 127.495 47.5918 127.671 47.9141 127.759C48.2363 127.817 48.4854 127.847 48.6611 127.847C49.3643 127.847 49.9502 127.729 50.4189 127.495C50.917 127.231 51.3418 126.968 51.6934 126.704C52.0742 126.411 52.4404 126.147 52.792 125.913C53.1436 125.649 53.5391 125.518 53.9785 125.518C54.3008 125.518 54.6523 125.605 55.0332 125.781C55.4434 125.928 55.8096 126.177 56.1318 126.528C56.4834 126.88 56.7764 127.349 57.0107 127.935C57.2451 128.491 57.3623 129.18 57.3623 130C57.3623 131.172 57.1279 132.183 56.6592 133.032C56.2197 133.882 55.6338 134.6 54.9014 135.186C54.1982 135.742 53.3779 136.167 52.4404 136.46C51.5322 136.724 50.624 136.855 49.7158 136.855C48.3096 136.855 47.0352 136.606 45.8926 136.108C44.7793 135.581 43.8271 134.878 43.0361 133.999C42.2451 133.12 41.6445 132.095 41.2344 130.923C40.8242 129.751 40.6191 128.521 40.6191 127.231C40.6191 125.298 40.9414 123.525 41.5859 121.914C42.2305 120.273 43.124 118.794 44.2666 117.476C45.4092 116.128 46.7568 114.956 48.3096 113.96C49.8623 112.935 51.5322 112.085 53.3193 111.411C55.1357 110.708 57.0254 110.181 58.9883 109.829C60.9512 109.478 62.9287 109.302 64.9209 109.302C67.7334 109.302 70.1064 109.536 72.04 110.005C74.0029 110.444 75.6436 111.118 76.9619 112.026C78.2803 112.905 79.335 114.033 80.126 115.41C80.9463 116.758 81.6201 118.325 82.1475 120.112L91.5957 152.588H101.132V156.455H92.6504L96.0781 167.969C96.1953 168.408 96.3125 168.818 96.4297 169.199C96.5469 169.58 96.6787 169.917 96.8252 170.21C97.001 170.474 97.2061 170.693 97.4404 170.869C97.7041 171.045 98.0264 171.133 98.4072 171.133C99.2275 171.133 99.9893 171.001 100.692 170.737C101.396 170.444 102.011 170.151 102.538 169.858L103.285 171.484C102.758 171.865 102.084 172.305 101.264 172.803C100.473 173.271 99.5498 173.726 98.4951 174.165C97.4697 174.604 96.3271 174.971 95.0674 175.264C93.8076 175.557 92.46 175.703 91.0244 175.703C89.0322 175.703 87.4209 175.454 86.1904 174.956C84.9893 174.458 84.0371 173.843 83.334 173.11C82.6602 172.378 82.1621 171.602 81.8398 170.781C81.5469 169.961 81.3125 169.243 81.1367 168.628L77.6211 156.455ZM69.0957 126.748C67.8945 131.641 66.7227 136.24 65.5801 140.547C64.4668 144.854 63.3535 148.867 62.2402 152.588H76.5664L69.0957 126.748ZM134.618 153.115C134.618 149.424 134.442 146.479 134.091 144.282C133.769 142.056 133.329 140.371 132.772 139.229C132.216 138.057 131.601 137.295 130.927 136.943C130.253 136.562 129.564 136.372 128.861 136.372C128.012 136.372 127.25 136.606 126.576 137.075C125.932 137.515 125.36 138.027 124.862 138.613C124.394 139.199 123.983 139.785 123.632 140.371C123.31 140.957 123.031 141.396 122.797 141.689V171.045C122.797 171.426 122.738 171.895 122.621 172.451C122.504 172.979 122.211 173.491 121.742 173.989C121.303 174.458 120.629 174.854 119.721 175.176C118.842 175.527 117.626 175.703 116.073 175.703C114.521 175.703 113.29 175.513 112.382 175.132C111.503 174.78 110.829 174.355 110.36 173.857C109.892 173.359 109.599 172.847 109.481 172.319C109.364 171.792 109.306 171.367 109.306 171.045V137.119C109.306 136.27 109.101 135.537 108.69 134.922C108.31 134.277 107.65 133.955 106.713 133.955C106.215 133.955 105.79 134.043 105.438 134.219C105.087 134.395 104.706 134.644 104.296 134.966L103.373 133.867C104.047 133.311 104.794 132.769 105.614 132.241C106.464 131.685 107.372 131.201 108.339 130.791C109.306 130.381 110.346 130.044 111.459 129.78C112.572 129.517 113.744 129.385 114.975 129.385C116.879 129.385 118.358 129.707 119.413 130.352C120.468 130.967 121.244 131.714 121.742 132.593C122.24 133.472 122.533 134.395 122.621 135.361C122.738 136.299 122.797 137.09 122.797 137.734C123.881 136.182 125.111 134.79 126.488 133.56C127.045 133.032 127.66 132.52 128.334 132.021C129.037 131.523 129.77 131.084 130.531 130.703C131.322 130.293 132.143 129.971 132.992 129.736C133.871 129.502 134.765 129.385 135.673 129.385C137.665 129.385 139.423 129.766 140.946 130.527C142.499 131.289 143.803 132.563 144.857 134.351C145.912 136.138 146.718 138.511 147.274 141.47C147.831 144.399 148.109 148.047 148.109 152.412C148.109 156.66 147.729 160.352 146.967 163.486C146.205 166.621 145.209 169.287 143.979 171.484C142.748 173.682 141.356 175.469 139.804 176.846C138.251 178.252 136.684 179.351 135.102 180.142C133.52 180.933 131.996 181.475 130.531 181.768C129.096 182.09 127.851 182.266 126.796 182.295L126.312 180.493C127.191 180.288 127.997 179.966 128.729 179.526C129.491 179.087 130.18 178.442 130.795 177.593C131.41 176.743 131.952 175.674 132.421 174.385C132.89 173.066 133.285 171.426 133.607 169.463C133.959 167.5 134.208 165.186 134.354 162.52C134.53 159.824 134.618 156.689 134.618 153.115ZM171.444 133.164V165.64C171.444 167.192 171.737 168.276 172.323 168.892C172.909 169.478 173.715 169.771 174.74 169.771C175.531 169.771 176.234 169.551 176.85 169.111C177.465 168.672 177.992 168.174 178.432 167.617C178.959 167.002 179.413 166.284 179.794 165.464L181.156 166.079C180.717 167.017 180.189 168.042 179.574 169.155C178.988 170.269 178.197 171.309 177.201 172.275C176.205 173.213 174.945 174.004 173.422 174.648C171.928 175.293 170.038 175.615 167.753 175.615C166.464 175.615 165.219 175.425 164.018 175.044C162.846 174.663 161.791 174.062 160.854 173.242C159.945 172.422 159.213 171.396 158.656 170.166C158.1 168.936 157.821 167.456 157.821 165.728V133.164H152.899V130C153.72 130 154.862 129.795 156.327 129.385C157.792 128.945 159.286 128.228 160.81 127.231C162.362 126.235 163.798 124.902 165.116 123.232C166.435 121.562 167.372 119.497 167.929 117.036H171.444V130H178.607C180.951 130 182.123 129.604 182.123 128.813C182.123 128.521 181.977 128.33 181.684 128.242C181.391 128.125 181.054 127.993 180.673 127.847C180.321 127.671 179.999 127.437 179.706 127.144C179.413 126.851 179.267 126.367 179.267 125.693C179.267 124.873 179.516 124.229 180.014 123.76C180.541 123.291 181.215 123.057 182.035 123.057C182.562 123.057 183.017 123.174 183.397 123.408C183.808 123.613 184.145 123.906 184.408 124.287C184.672 124.639 184.862 125.049 184.979 125.518C185.126 125.986 185.199 126.455 185.199 126.924C185.199 128.828 184.643 130.352 183.529 131.494C182.445 132.607 180.688 133.164 178.256 133.164H171.444ZM202.426 171.045C202.426 171.426 202.353 171.895 202.206 172.451C202.089 172.979 201.781 173.491 201.283 173.989C200.814 174.458 200.126 174.854 199.218 175.176C198.31 175.527 197.079 175.703 195.526 175.703C193.974 175.703 192.758 175.513 191.879 175.132C191 174.78 190.341 174.355 189.901 173.857C189.462 173.359 189.184 172.847 189.066 172.319C188.979 171.792 188.935 171.367 188.935 171.045V137.119C188.935 136.27 188.729 135.537 188.319 134.922C187.938 134.277 187.279 133.955 186.342 133.955C185.844 133.955 185.419 134.043 185.067 134.219C184.716 134.395 184.335 134.644 183.925 134.966L183.002 133.867C183.676 133.311 184.423 132.769 185.243 132.241C186.093 131.685 187.001 131.201 187.968 130.791C188.935 130.381 189.975 130.044 191.088 129.78C192.201 129.517 193.373 129.385 194.604 129.385C196.508 129.385 197.987 129.648 199.042 130.176C200.097 130.674 200.873 131.304 201.371 132.065C201.869 132.798 202.162 133.589 202.25 134.438C202.367 135.288 202.426 136.035 202.426 136.68V171.045ZM187.572 119.365C187.572 118.545 187.748 117.769 188.1 117.036C188.48 116.274 188.993 115.615 189.638 115.059C190.312 114.502 191.073 114.062 191.923 113.74C192.802 113.418 193.754 113.257 194.779 113.257C195.775 113.257 196.698 113.418 197.548 113.74C198.427 114.062 199.188 114.502 199.833 115.059C200.478 115.615 200.976 116.274 201.327 117.036C201.708 117.769 201.898 118.545 201.898 119.365C201.898 120.215 201.708 121.006 201.327 121.738C200.976 122.471 200.478 123.115 199.833 123.672C199.188 124.199 198.427 124.624 197.548 124.946C196.698 125.269 195.775 125.43 194.779 125.43C193.754 125.43 192.802 125.269 191.923 124.946C191.073 124.624 190.312 124.199 189.638 123.672C188.993 123.115 188.48 122.471 188.1 121.738C187.748 121.006 187.572 120.215 187.572 119.365ZM210.731 152.5C210.731 148.662 211.288 145.308 212.401 142.437C213.515 139.536 214.994 137.119 216.84 135.186C218.715 133.252 220.883 131.802 223.344 130.835C225.805 129.868 228.383 129.385 231.078 129.385C233.773 129.385 236.352 129.839 238.812 130.747C241.273 131.626 243.427 132.988 245.272 134.834C247.147 136.68 248.642 139.023 249.755 141.865C250.868 144.678 251.425 148.018 251.425 151.885C251.425 155.723 250.868 159.121 249.755 162.08C248.642 165.039 247.147 167.529 245.272 169.551C243.427 171.572 241.273 173.11 238.812 174.165C236.352 175.19 233.773 175.703 231.078 175.703H230.814C232.455 176.172 234.242 176.816 236.176 177.637C238.139 178.457 240.16 179.336 242.24 180.273C244.35 181.211 246.459 182.163 248.568 183.13C250.707 184.126 252.772 185.02 254.765 185.811C256.757 186.602 258.632 187.246 260.39 187.744C262.177 188.242 263.773 188.491 265.18 188.491C266.117 188.491 266.908 188.418 267.553 188.271C268.227 188.125 268.783 187.92 269.223 187.656C269.662 187.393 269.999 187.085 270.233 186.733C270.497 186.382 270.717 185.986 270.893 185.547L272.211 185.811C272.064 187.48 271.713 188.989 271.156 190.337C270.629 191.714 269.896 192.886 268.959 193.853C268.051 194.849 266.952 195.61 265.663 196.138C264.374 196.694 262.924 196.973 261.312 196.973C259.408 196.973 257.343 196.592 255.116 195.83C252.89 195.068 250.575 194.116 248.173 192.974C245.8 191.86 243.383 190.645 240.922 189.326C238.49 188.008 236.103 186.777 233.759 185.635C231.444 184.521 229.218 183.584 227.079 182.822C224.97 182.061 223.065 181.68 221.366 181.68C219.638 181.68 218.407 182.427 217.675 183.921L216.312 183.481C216.4 182.983 216.62 182.28 216.972 181.372C217.323 180.464 217.865 179.556 218.598 178.647C219.33 177.739 220.268 176.934 221.41 176.23C222.582 175.527 224.003 175.117 225.673 175C223.593 174.473 221.645 173.608 219.828 172.407C218.012 171.177 216.43 169.624 215.082 167.749C213.734 165.874 212.665 163.662 211.874 161.113C211.112 158.564 210.731 155.693 210.731 152.5ZM237.758 152.061C237.758 149.717 237.67 147.461 237.494 145.293C237.348 143.096 237.04 141.147 236.571 139.448C236.103 137.749 235.429 136.401 234.55 135.405C233.671 134.38 232.514 133.867 231.078 133.867C229.643 133.867 228.485 134.409 227.606 135.493C226.728 136.548 226.054 137.954 225.585 139.712C225.116 141.44 224.809 143.418 224.662 145.645C224.516 147.871 224.442 150.156 224.442 152.5C224.442 154.844 224.516 157.144 224.662 159.399C224.809 161.626 225.116 163.618 225.585 165.376C226.054 167.134 226.728 168.555 227.606 169.639C228.485 170.693 229.643 171.221 231.078 171.221C232.514 171.221 233.671 170.664 234.55 169.551C235.429 168.438 236.103 166.973 236.571 165.156C237.04 163.34 237.348 161.289 237.494 159.004C237.67 156.719 237.758 154.404 237.758 152.061ZM298.095 167.354C298.095 167.617 298.109 167.91 298.139 168.232C298.168 168.525 298.241 168.818 298.358 169.111C298.476 169.375 298.651 169.595 298.886 169.771C299.12 169.946 299.457 170.034 299.896 170.034C300.453 170.034 300.951 169.844 301.391 169.463C301.83 169.053 302.24 168.643 302.621 168.232L303.676 169.155C303.236 169.771 302.68 170.459 302.006 171.221C301.361 171.953 300.57 172.656 299.633 173.33C298.695 174.004 297.626 174.561 296.425 175C295.224 175.469 293.861 175.703 292.338 175.703C291.049 175.703 289.921 175.527 288.954 175.176C288.017 174.854 287.211 174.414 286.537 173.857C285.893 173.271 285.409 172.598 285.087 171.836C284.765 171.045 284.604 170.21 284.604 169.331V167.354C283.139 168.936 281.601 170.327 279.989 171.528C279.286 172.056 278.539 172.568 277.748 173.066C276.957 173.564 276.137 174.019 275.287 174.429C274.438 174.81 273.559 175.117 272.65 175.352C271.742 175.586 270.834 175.703 269.926 175.703C268.168 175.703 266.659 175.396 265.399 174.78C264.169 174.136 263.173 173.301 262.411 172.275C261.649 171.25 261.093 170.093 260.741 168.804C260.39 167.515 260.214 166.226 260.214 164.937V137.734C260.214 137.471 260.199 137.192 260.17 136.899C260.141 136.577 260.067 136.284 259.95 136.021C259.833 135.728 259.657 135.493 259.423 135.317C259.188 135.142 258.852 135.054 258.412 135.054C257.885 135.054 257.387 135.259 256.918 135.669C256.479 136.05 256.083 136.445 255.731 136.855L254.633 135.933C255.072 135.317 255.614 134.644 256.259 133.911C256.933 133.149 257.738 132.432 258.676 131.758C259.613 131.084 260.683 130.527 261.884 130.088C263.114 129.619 264.477 129.385 265.971 129.385C267.26 129.385 268.388 129.561 269.354 129.912C270.321 130.234 271.127 130.688 271.771 131.274C272.416 131.831 272.899 132.505 273.222 133.296C273.544 134.058 273.705 134.878 273.705 135.757V165.112C273.705 165.522 273.764 165.947 273.881 166.387C274.027 166.797 274.218 167.178 274.452 167.529C274.716 167.881 275.038 168.174 275.419 168.408C275.8 168.613 276.254 168.716 276.781 168.716C277.631 168.716 278.48 168.496 279.33 168.057C280.18 167.617 280.956 167.104 281.659 166.519C282.362 165.903 282.963 165.303 283.461 164.717C283.988 164.131 284.369 163.691 284.604 163.398V137.734C284.604 137.471 284.589 137.192 284.56 136.899C284.53 136.577 284.457 136.284 284.34 136.021C284.223 135.728 284.047 135.493 283.812 135.317C283.578 135.142 283.241 135.054 282.802 135.054C282.274 135.054 281.776 135.259 281.308 135.669C280.868 136.05 280.473 136.445 280.121 136.855L279.022 135.933C279.462 135.317 280.004 134.644 280.648 133.911C281.322 133.149 282.128 132.432 283.065 131.758C284.003 131.084 285.072 130.527 286.273 130.088C287.504 129.619 288.866 129.385 290.36 129.385C291.649 129.385 292.777 129.561 293.744 129.912C294.711 130.234 295.517 130.688 296.161 131.274C296.806 131.831 297.289 132.505 297.611 133.296C297.934 134.058 298.095 134.878 298.095 135.757V167.354ZM321.034 154.829C321.034 155.767 321.166 156.792 321.43 157.905C321.723 158.989 322.133 160.088 322.66 161.201C323.188 162.314 323.832 163.384 324.594 164.409C325.385 165.405 326.278 166.299 327.274 167.09C328.3 167.881 329.428 168.511 330.658 168.979C331.889 169.448 333.236 169.683 334.701 169.683C335.727 169.683 336.679 169.565 337.558 169.331C338.437 169.097 339.257 168.774 340.019 168.364C340.78 167.954 341.513 167.485 342.216 166.958C342.919 166.401 343.622 165.815 344.325 165.2L345.424 166.255C344.75 167.163 343.886 168.159 342.831 169.243C341.776 170.327 340.502 171.353 339.008 172.319C337.514 173.257 335.771 174.048 333.778 174.692C331.786 175.308 329.516 175.615 326.967 175.615C324.418 175.615 321.928 175.161 319.496 174.253C317.094 173.315 314.955 171.924 313.08 170.078C311.205 168.232 309.696 165.933 308.554 163.179C307.44 160.425 306.884 157.202 306.884 153.511C306.884 150.845 307.221 148.398 307.895 146.172C308.568 143.945 309.477 141.938 310.619 140.151C311.791 138.364 313.139 136.797 314.662 135.449C316.215 134.102 317.841 132.988 319.54 132.109C321.239 131.201 322.968 130.527 324.726 130.088C326.513 129.619 328.227 129.385 329.867 129.385C332.035 129.385 333.925 129.619 335.536 130.088C337.147 130.557 338.48 131.187 339.535 131.978C340.619 132.769 341.425 133.691 341.952 134.746C342.479 135.771 342.743 136.855 342.743 137.998C342.743 139.375 342.348 140.62 341.557 141.733C340.766 142.817 339.711 143.77 338.393 144.59L321.034 154.829ZM329.867 145.908C330.248 145.674 330.556 145.454 330.79 145.249C331.054 145.015 331.259 144.751 331.405 144.458C331.552 144.136 331.654 143.755 331.713 143.315C331.801 142.847 331.845 142.275 331.845 141.602C331.845 140.869 331.757 140.063 331.581 139.185C331.435 138.276 331.171 137.427 330.79 136.636C330.409 135.845 329.926 135.186 329.34 134.658C328.754 134.131 328.051 133.867 327.23 133.867C326.176 133.867 325.268 134.189 324.506 134.834C323.773 135.449 323.158 136.255 322.66 137.251C322.191 138.247 321.811 139.39 321.518 140.679C321.254 141.938 321.049 143.213 320.902 144.502C320.756 145.791 320.668 147.036 320.639 148.237C320.609 149.409 320.595 150.405 320.595 151.226L329.867 145.908Z" fill="#290001"/>
</svg>
